<?xml version="1.0" encoding="UTF-8" standalone="no"?>
<!-- Created with Inkscape (http://www.inkscape.org/) -->

<svg
   xmlns:dc="http://purl.org/dc/elements/1.1/"
   xmlns:cc="http://creativecommons.org/ns#"
   xmlns:rdf="http://www.w3.org/1999/02/22-rdf-syntax-ns#"
   xmlns:svg="http://www.w3.org/2000/svg"
   xmlns="http://www.w3.org/2000/svg"
   xmlns:sodipodi="http://sodipodi.sourceforge.net/DTD/sodipodi-0.dtd"
   xmlns:inkscape="http://www.inkscape.org/namespaces/inkscape"
   width="210mm"
   height="297mm"
   viewBox="0 0 210 297"
   version="1.1"
   id="svg8"
   inkscape:version="0.92.5 (2060ec1f9f, 2020-04-08)"
   sodipodi:docname="Gooxgle.svg">
  <defs
     id="defs2" />
  <sodipodi:namedview
     id="base"
     pagecolor="#ffffff"
     bordercolor="#666666"
     borderopacity="1.0"
     inkscape:pageopacity="0.0"
     inkscape:pageshadow="2"
     inkscape:zoom="0.7"
     inkscape:cx="365.09468"
     inkscape:cy="512.38072"
     inkscape:document-units="mm"
     inkscape:current-layer="layer1"
     showgrid="false"
     inkscape:window-width="1366"
     inkscape:window-height="715"
     inkscape:window-x="0"
     inkscape:window-y="25"
     inkscape:window-maximized="1" />
  <metadata
     id="metadata5">
    <rdf:RDF>
      <cc:Work
         rdf:about="">
        <dc:format>image/svg+xml</dc:format>
        <dc:type
           rdf:resource="http://purl.org/dc/dcmitype/StillImage" />
        <dc:title></dc:title>
      </cc:Work>
    </rdf:RDF>
  </metadata>
  <g
     inkscape:label="Camada 1"
     inkscape:groupmode="layer"
     id="layer1">
    <g
       aria-label="Gooxgle"
       style="font-style:normal;font-weight:normal;font-size:43.80092621px;line-height:1.25;font-family:sans-serif;letter-spacing:0px;word-spacing:0px;fill:#4285f4;fill-opacity:1;stroke:none;stroke-width:1.09502316;image-rendering:auto"
       id="text3715"
       transform="translate(1.8898809,-13.607143)"
       inkscape:export-xdpi="96"
       inkscape:export-ydpi="96">
      <path
         d="m 35.734851,156.01083 q -3.079796,1.49713 -6.394854,2.24569 -3.315058,0.74856 -6.84399,0.74856 -7.977527,0 -12.6399955,-4.4486 -4.6624686,-4.46998 -4.6624686,-12.1053 0,-7.72088 4.7480185,-12.14809 4.7480186,-4.4272 13.0035826,-4.4272 3.186733,0 6.095429,0.59885 2.930083,0.59884 5.517967,1.77516 v 6.60872 q -2.673433,-1.51851 -5.32548,-2.26707 -2.630659,-0.74856 -5.282705,-0.74856 -4.919118,0 -7.592552,2.75898 -2.652047,2.7376 -2.652047,7.84921 0,5.06883 2.566497,7.82781 2.566496,2.75898 7.293127,2.75898 1.283249,0 2.37401,-0.14971 1.112148,-0.1711 1.989034,-0.5133 v -6.20236 h -5.026055 v -5.51797 h 12.832482 z"
         style="font-style:normal;font-variant:normal;font-weight:bold;font-stretch:normal;font-size:43.80154037px;font-family:sans-serif;-inkscape-font-specification:'sans-serif, Bold';font-variant-ligatures:normal;font-variant-caps:normal;font-variant-numeric:normal;font-feature-settings:normal;text-align:start;writing-mode:lr-tb;text-anchor:start;fill:#4285f4;fill-opacity:1;stroke-width:1.09502316"
         id="path4630"
         inkscape:connector-curvature="0" />
      <path
         d="m 54.042527,139.32861 q -2.545109,0 -3.89252,1.83932 -1.326023,1.81793 -1.326023,5.26132 0,3.44338 1.326023,5.2827 1.347411,1.81794 3.89252,1.81794 2.502334,0 3.828357,-1.81794 1.326023,-1.83932 1.326023,-5.2827 0,-3.44339 -1.326023,-5.26132 -1.326023,-1.83932 -3.828357,-1.83932 z m 0,-5.4752 q 6.180979,0 9.645749,3.33645 3.486158,3.33644 3.486158,9.23939 0,5.90294 -3.486158,9.23938 -3.46477,3.33645 -9.645749,3.33645 -6.202367,0 -9.709912,-3.33645 -3.486158,-3.33644 -3.486158,-9.23938 0,-5.90295 3.486158,-9.23939 3.507545,-3.33645 9.709912,-3.33645 z"
         style="font-style:normal;font-variant:normal;font-weight:bold;font-stretch:normal;font-size:43.80154037px;font-family:sans-serif;-inkscape-font-specification:'sans-serif, Bold';font-variant-ligatures:normal;font-variant-caps:normal;font-variant-numeric:normal;font-feature-settings:normal;text-align:start;writing-mode:lr-tb;text-anchor:start;fill:#ea4335;fill-opacity:1;stroke-width:1.09502316"
         id="path4632"
         inkscape:connector-curvature="0" />
      <path
         d="m 84.134698,139.32861 q -2.545109,0 -3.89252,1.83932 -1.326023,1.81793 -1.326023,5.26132 0,3.44338 1.326023,5.2827 1.347411,1.81794 3.89252,1.81794 2.502334,0 3.828357,-1.81794 1.326023,-1.83932 1.326023,-5.2827 0,-3.44339 -1.326023,-5.26132 -1.326023,-1.83932 -3.828357,-1.83932 z m 0,-5.4752 q 6.180979,0 9.645749,3.33645 3.486158,3.33644 3.486158,9.23939 0,5.90294 -3.486158,9.23938 -3.46477,3.33645 -9.645749,3.33645 -6.202367,0 -9.709912,-3.33645 -3.486158,-3.33644 -3.486158,-9.23938 0,-5.90295 3.486158,-9.23939 3.507545,-3.33645 9.709912,-3.33645 z"
         style="font-style:normal;font-variant:normal;font-weight:bold;font-stretch:normal;font-size:43.80154037px;font-family:sans-serif;-inkscape-font-specification:'sans-serif, Bold';font-variant-ligatures:normal;font-variant-caps:normal;font-variant-numeric:normal;font-feature-settings:normal;text-align:start;writing-mode:lr-tb;text-anchor:start;fill:#fbbc05;fill-opacity:0.99607843;stroke-width:1.09502316"
         id="path4634"
         inkscape:connector-curvature="0" />
      <path
         d="m 108.88,146.12982 -8.64054,-11.69895 h 8.10585 l 4.89773,7.10064 4.9619,-7.10064 h 8.10585 l -8.64054,11.65618 9.06829,12.29779 h -8.10585 l -5.38965,-7.57116 -5.32548,7.57116 h -8.105847 z"
         style="font-style:normal;font-variant:normal;font-weight:bold;font-stretch:normal;font-size:43.80154037px;font-family:sans-serif;-inkscape-font-specification:'sans-serif, Bold';font-variant-ligatures:normal;font-variant-caps:normal;font-variant-numeric:normal;font-feature-settings:normal;text-align:start;writing-mode:lr-tb;text-anchor:start;fill:#666666;fill-opacity:1;stroke-width:1.09502316"
         id="path4636"
         inkscape:connector-curvature="0" />
      <path
         d="m 147.37745,154.32122 q -1.58268,2.09597 -3.48616,3.0798 -1.90349,0.98382 -4.40582,0.98382 -4.38443,0 -7.25035,-3.44338 -2.86593,-3.46477 -2.86593,-8.81164 0,-5.36825 2.86593,-8.79025 2.86592,-3.44338 7.25035,-3.44338 2.50233,0 4.40582,0.98382 1.90348,0.98383 3.48616,3.10118 v -3.55032 h 7.69948 v 21.53719 q 0,5.77461 -3.65725,8.81164 -3.63587,3.0584 -10.56541,3.0584 -2.24569,0 -4.34166,-0.3422 -2.09597,-0.3422 -4.21333,-1.04798 v -5.96711 q 2.01042,1.15493 3.93529,1.711 1.92488,0.57746 3.87113,0.57746 3.7642,0 5.51797,-1.64683 1.75378,-1.64684 1.75378,-5.15438 z M 142.33,139.41416 q -2.37401,0 -3.70003,1.75377 -1.32602,1.75377 -1.32602,4.96189 0,3.29367 1.28324,5.00467 1.28325,1.68961 3.74281,1.68961 2.3954,0 3.72142,-1.75377 1.32603,-1.75378 1.32603,-4.94051 0,-3.20812 -1.32603,-4.96189 -1.32602,-1.75377 -3.72142,-1.75377 z"
         style="font-style:normal;font-variant:normal;font-weight:bold;font-stretch:normal;font-size:43.80154037px;font-family:sans-serif;-inkscape-font-specification:'sans-serif, Bold';font-variant-ligatures:normal;font-variant-caps:normal;font-variant-numeric:normal;font-feature-settings:normal;text-align:start;writing-mode:lr-tb;text-anchor:start;fill:#4285f4;fill-opacity:1;stroke-width:1.09502316"
         id="path4638"
         inkscape:connector-curvature="0" />
      <path
         d="m 162.43423,125.10594 h 7.65671 v 33.2789 h -7.65671 z"
         style="font-style:normal;font-variant:normal;font-weight:bold;font-stretch:normal;font-size:43.80154037px;font-family:sans-serif;-inkscape-font-specification:'sans-serif, Bold';font-variant-ligatures:normal;font-variant-caps:normal;font-variant-numeric:normal;font-feature-settings:normal;text-align:start;writing-mode:lr-tb;text-anchor:start;fill:#34a853;fill-opacity:1;stroke-width:1.09502316"
         id="path4640"
         inkscape:connector-curvature="0" />
      <path
         d="m 201.35943,146.3437 v 2.18152 h -17.90132 q 0.27804,2.69482 1.94626,4.04223 1.66823,1.34741 4.66247,1.34741 2.41679,0 4.94051,-0.70579 2.54511,-0.72717 5.21854,-2.18152 v 5.90294 q -2.71621,1.0266 -5.43242,1.5399 -2.71621,0.53469 -5.43241,0.53469 -6.5018,0 -10.11628,-3.29367 -3.59309,-3.31506 -3.59309,-9.28216 0,-5.86017 3.52893,-9.218 3.55032,-3.35784 9.75269,-3.35784 5.64629,0 9.02551,3.40061 3.40061,3.40061 3.40061,9.08968 z m -7.87059,-2.54511 q 0,-2.18153 -1.28325,-3.50755 -1.26186,-1.34741 -3.31506,-1.34741 -2.2243,0 -3.61448,1.26186 -1.39019,1.24047 -1.73239,3.5931 z"
         style="font-style:normal;font-variant:normal;font-weight:bold;font-stretch:normal;font-size:43.80154037px;font-family:sans-serif;-inkscape-font-specification:'sans-serif, Bold';font-variant-ligatures:normal;font-variant-caps:normal;font-variant-numeric:normal;font-feature-settings:normal;text-align:start;writing-mode:lr-tb;text-anchor:start;fill:#ea4335;fill-opacity:1;stroke-width:1.09502316"
         id="path4642"
         inkscape:connector-curvature="0" />
    </g>
  </g>
</svg>
